<svg xmlns="http://www.w3.org/2000/svg" version="1.1" xmlns:xlink="http://www.w3.org/1999/xlink" width="1440" height="1440"><svg xmlns="http://www.w3.org/2000/svg" xmlns:xlink="http://www.w3.org/1999/xlink" width="1440" zoomAndPan="magnify" viewBox="0 0 1080 1079.999946" height="1440" preserveAspectRatio="xMidYMid meet" version="1.0"><defs><g></g><clipPath id="SvgjsClipPath1028"><rect x="0" width="1080" y="0" height="735"></rect></clipPath></defs><g transform="matrix(1, 0, 0, 1, 0, 170)"><g clip-path="url(#6f20b93026)"><g fill="#000000" fill-opacity="1"><g transform="translate(0.000027, 584.949281)"><g><path d="M 238.625 -582.75 C 275.195312 -582.75 308.765625 -577.1875 339.328125 -566.0625 C 369.890625 -554.9375 396.488281 -539.207031 419.125 -518.875 C 441.757812 -498.539062 459.28125 -474.5625 471.6875 -446.9375 C 484.09375 -419.320312 490.296875 -389.144531 490.296875 -356.40625 C 490.296875 -323.15625 484.09375 -292.78125 471.6875 -265.28125 C 459.28125 -237.789062 441.757812 -214.070312 419.125 -194.125 C 396.488281 -174.175781 369.890625 -158.765625 339.328125 -147.890625 C 308.765625 -137.023438 275.195312 -131.59375 238.625 -131.59375 L 146.546875 -131.59375 L 146.546875 -11.515625 C 146.546875 -7.929688 145.457031 -4.988281 143.28125 -2.6875 C 141.113281 -0.382812 138.238281 0.765625 134.65625 0.765625 L 94.765625 0.765625 C 90.921875 0.765625 87.910156 -0.382812 85.734375 -2.6875 C 83.566406 -4.988281 82.484375 -7.929688 82.484375 -11.515625 L 82.484375 -570.859375 C 82.484375 -574.441406 83.632812 -577.316406 85.9375 -579.484375 C 88.238281 -581.660156 91.179688 -582.75 94.765625 -582.75 L 115.859375 -582.75 C 120.460938 -582.75 124.679688 -582.75 128.515625 -582.75 C 132.359375 -582.75 135.175781 -582.75 136.96875 -582.75 Z M 234.40625 -188.75 C 262.28125 -188.75 287.921875 -192.773438 311.328125 -200.828125 C 334.734375 -208.890625 355.003906 -220.335938 372.140625 -235.171875 C 389.273438 -250.003906 402.570312 -267.710938 412.03125 -288.296875 C 421.5 -308.890625 426.234375 -331.59375 426.234375 -356.40625 C 426.234375 -380.957031 421.5 -403.523438 412.03125 -424.109375 C 402.570312 -444.703125 389.273438 -462.609375 372.140625 -477.828125 C 355.003906 -493.046875 334.734375 -504.8125 311.328125 -513.125 C 287.921875 -521.4375 262.28125 -525.59375 234.40625 -525.59375 L 146.546875 -525.59375 L 146.546875 -188.75 Z M 234.40625 -188.75 "></path></g></g></g><g fill="#000000" fill-opacity="1"><g transform="translate(529.41479, 584.949281)"><g><path d="M 494.515625 -61.390625 C 499.628906 -61.390625 503.65625 -60.109375 506.59375 -57.546875 C 509.539062 -54.984375 511.015625 -51.53125 511.015625 -47.1875 L 511.015625 -11.890625 C 511.015625 -8.304688 509.796875 -5.425781 507.359375 -3.25 C 504.929688 -1.082031 501.675781 0 497.59375 0 L 94.765625 0 C 86.578125 0 82.484375 -4.09375 82.484375 -12.28125 L 82.484375 -570.859375 C 82.484375 -578.785156 86.578125 -582.75 94.765625 -582.75 L 489.140625 -582.75 C 498.097656 -582.75 502.578125 -578.914062 502.578125 -571.25 L 502.578125 -534.03125 C 502.578125 -525.84375 498.097656 -521.75 489.140625 -521.75 L 146.546875 -521.75 L 146.546875 -280.828125 L 425.84375 -280.828125 C 436.070312 -280.828125 441.1875 -276.609375 441.1875 -268.171875 L 441.1875 -233.25 C 441.1875 -225.320312 436.070312 -221.359375 425.84375 -221.359375 L 146.546875 -221.359375 L 146.546875 -61.390625 Z M 494.515625 -61.390625 "></path></g></g></g></g></g></svg><style>@media (prefers-color-scheme: light) { :root { filter: none; } }
@media (prefers-color-scheme: dark) { :root { filter: none; } }
</style></svg>