<svg xmlns="http://www.w3.org/2000/svg" xmlns:xlink="http://www.w3.org/1999/xlink" width="1440" zoomAndPan="magnify" viewBox="0 0 1080 1079.999946" height="1440" preserveAspectRatio="xMidYMid meet" version="1.0"><defs><g/></defs><g fill="#000000" fill-opacity="1"><g transform="translate(201.562509, 447.854353)"><g><path d="M 66.578125 -162.578125 C 76.773438 -162.578125 86.132812 -161.023438 94.65625 -157.921875 C 103.1875 -154.816406 110.609375 -150.425781 116.921875 -144.75 C 123.242188 -139.082031 128.132812 -132.394531 131.59375 -124.6875 C 135.050781 -116.988281 136.78125 -108.570312 136.78125 -99.4375 C 136.78125 -90.15625 135.050781 -81.675781 131.59375 -74 C 128.132812 -66.332031 123.242188 -59.71875 116.921875 -54.15625 C 110.609375 -48.59375 103.1875 -44.296875 94.65625 -41.265625 C 86.132812 -38.234375 76.773438 -36.71875 66.578125 -36.71875 L 40.890625 -36.71875 L 40.890625 -3.21875 C 40.890625 -2.21875 40.582031 -1.394531 39.96875 -0.75 C 39.363281 -0.101562 38.5625 0.21875 37.5625 0.21875 L 26.4375 0.21875 C 25.363281 0.21875 24.523438 -0.101562 23.921875 -0.75 C 23.316406 -1.394531 23.015625 -2.21875 23.015625 -3.21875 L 23.015625 -159.265625 C 23.015625 -160.265625 23.332031 -161.066406 23.96875 -161.671875 C 24.613281 -162.273438 25.4375 -162.578125 26.4375 -162.578125 L 32.328125 -162.578125 C 33.609375 -162.578125 34.785156 -162.578125 35.859375 -162.578125 C 36.929688 -162.578125 37.710938 -162.578125 38.203125 -162.578125 Z M 65.390625 -52.65625 C 73.171875 -52.65625 80.328125 -53.78125 86.859375 -56.03125 C 93.390625 -58.28125 99.046875 -61.472656 103.828125 -65.609375 C 108.609375 -69.742188 112.316406 -74.679688 114.953125 -80.421875 C 117.585938 -86.171875 118.90625 -92.507812 118.90625 -99.4375 C 118.90625 -106.28125 117.585938 -112.570312 114.953125 -118.3125 C 112.316406 -124.0625 108.609375 -129.054688 103.828125 -133.296875 C 99.046875 -137.546875 93.390625 -140.832031 86.859375 -143.15625 C 80.328125 -145.476562 73.171875 -146.640625 65.390625 -146.640625 L 40.890625 -146.640625 L 40.890625 -52.65625 Z M 65.390625 -52.65625 "/></g></g><g transform="translate(349.267301, 447.854353)"><g><path d="M 24.625 -129.078125 C 21.625 -129.078125 19.085938 -130.113281 17.015625 -132.1875 C 14.953125 -134.257812 13.921875 -136.789062 13.921875 -139.78125 C 13.921875 -142.707031 14.953125 -145.238281 17.015625 -147.375 C 19.085938 -149.519531 21.625 -150.59375 24.625 -150.59375 C 27.6875 -150.59375 30.25 -149.519531 32.3125 -147.375 C 34.382812 -145.238281 35.421875 -142.707031 35.421875 -139.78125 C 35.421875 -136.789062 34.382812 -134.257812 32.3125 -132.1875 C 30.25 -130.113281 27.6875 -129.078125 24.625 -129.078125 Z M 30.1875 -108.109375 C 31.96875 -108.109375 32.859375 -107.25 32.859375 -105.53125 L 32.859375 -2.359375 C 32.859375 -0.710938 31.96875 0.109375 30.1875 0.109375 L 19.046875 0.109375 C 17.410156 0.109375 16.59375 -0.710938 16.59375 -2.359375 L 16.59375 -105.53125 C 16.59375 -107.25 17.410156 -108.109375 19.046875 -108.109375 Z M 30.1875 -108.109375 "/></g></g><g transform="translate(398.609264, 447.854353)"><g><path d="M 30.1875 -162.90625 C 31.96875 -162.90625 32.859375 -162.082031 32.859375 -160.4375 L 32.859375 -2.25 C 32.859375 -0.601562 31.96875 0.21875 30.1875 0.21875 L 19.046875 0.21875 C 17.410156 0.21875 16.59375 -0.601562 16.59375 -2.25 L 16.59375 -160.4375 C 16.59375 -162.082031 17.410156 -162.90625 19.046875 -162.90625 Z M 30.1875 -162.90625 "/></g></g><g transform="translate(447.951228, 447.854353)"><g><path d="M 118.484375 -108.109375 C 120.265625 -108.109375 121.15625 -107.210938 121.15625 -105.421875 L 121.15625 -2.46875 C 121.15625 -0.675781 120.265625 0.21875 118.484375 0.21875 L 112.0625 0.21875 C 110.707031 0.21875 109.78125 -0.457031 109.28125 -1.8125 L 106.171875 -22.796875 C 101.679688 -15.160156 95.617188 -9.09375 87.984375 -4.59375 C 80.347656 -0.101562 71.820312 2.140625 62.40625 2.140625 C 54.90625 2.140625 47.910156 0.710938 41.421875 -2.140625 C 34.929688 -4.992188 29.257812 -8.953125 24.40625 -14.015625 C 19.550781 -19.085938 15.765625 -25.03125 13.046875 -31.84375 C 10.335938 -38.65625 8.984375 -46.019531 8.984375 -53.9375 C 8.984375 -62.007812 10.335938 -69.488281 13.046875 -76.375 C 15.765625 -83.257812 19.53125 -89.25 24.34375 -94.34375 C 29.164062 -99.445312 34.820312 -103.40625 41.3125 -106.21875 C 47.800781 -109.039062 54.796875 -110.453125 62.296875 -110.453125 C 71.785156 -110.453125 80.347656 -108.222656 87.984375 -103.765625 C 95.617188 -99.304688 101.679688 -93.15625 106.171875 -85.3125 L 109.28125 -106.0625 C 109.707031 -107.425781 110.632812 -108.109375 112.0625 -108.109375 Z M 65.1875 -13.8125 C 70.820312 -13.8125 76.082031 -14.84375 80.96875 -16.90625 C 85.851562 -18.976562 90.148438 -21.851562 93.859375 -25.53125 C 97.578125 -29.207031 100.46875 -33.46875 102.53125 -38.3125 C 104.601562 -43.164062 105.640625 -48.410156 105.640625 -54.046875 C 105.640625 -59.753906 104.585938 -65.050781 102.484375 -69.9375 C 100.378906 -74.832031 97.46875 -79.113281 93.75 -82.78125 C 90.039062 -86.457031 85.742188 -89.3125 80.859375 -91.34375 C 75.972656 -93.382812 70.710938 -94.40625 65.078125 -94.40625 C 59.578125 -94.40625 54.4375 -93.382812 49.65625 -91.34375 C 44.875 -89.3125 40.664062 -86.457031 37.03125 -82.78125 C 33.394531 -79.113281 30.539062 -74.832031 28.46875 -69.9375 C 26.394531 -65.050781 25.359375 -59.753906 25.359375 -54.046875 C 25.359375 -48.410156 26.394531 -43.164062 28.46875 -38.3125 C 30.539062 -33.46875 33.394531 -29.207031 37.03125 -25.53125 C 40.664062 -21.851562 44.890625 -18.976562 49.703125 -16.90625 C 54.523438 -14.84375 59.6875 -13.8125 65.1875 -13.8125 Z M 65.1875 -13.8125 "/></g></g><g transform="translate(585.702001, 447.854353)"><g><path d="M 61.96875 -13.171875 C 63.039062 -13.171875 63.914062 -12.882812 64.59375 -12.3125 C 65.269531 -11.738281 65.609375 -11.0625 65.609375 -10.28125 L 65.609375 -0.75 C 65.609375 0.101562 65.25 0.816406 64.53125 1.390625 C 63.820312 1.960938 62.898438 2.25 61.765625 2.25 C 53.910156 2.25 47.003906 0.71875 41.046875 -2.34375 C 35.085938 -5.414062 30.429688 -9.804688 27.078125 -15.515625 C 23.722656 -21.222656 22.046875 -28.039062 22.046875 -35.96875 L 22.046875 -94.296875 L 7.171875 -94.296875 C 5.523438 -94.296875 4.703125 -95.113281 4.703125 -96.75 L 4.703125 -105.421875 C 4.703125 -107.140625 5.523438 -108 7.171875 -108 L 22.046875 -108 L 22.046875 -140.21875 C 22.046875 -141.707031 22.722656 -142.671875 24.078125 -143.109375 L 35.328125 -145.5625 C 37.242188 -145.988281 38.203125 -145.273438 38.203125 -143.421875 L 38.203125 -108 L 61.4375 -108 C 63.082031 -108 63.90625 -107.210938 63.90625 -105.640625 L 63.90625 -96.75 C 63.90625 -95.113281 63.082031 -94.296875 61.4375 -94.296875 L 38.3125 -94.296875 L 38.3125 -35.75 C 38.3125 -31.1875 39.328125 -27.207031 41.359375 -23.8125 C 43.398438 -20.425781 46.203125 -17.804688 49.765625 -15.953125 C 53.335938 -14.097656 57.40625 -13.171875 61.96875 -13.171875 Z M 61.96875 -13.171875 "/></g></g></g><g fill="#000000" fill-opacity="1"><g transform="translate(655.7012, 447.854353)"><g><path d="M 63.796875 -110.25 C 71.429688 -110.25 78.472656 -108.945312 84.921875 -106.34375 C 91.378906 -103.738281 96.984375 -100.0625 101.734375 -95.3125 C 106.484375 -90.5625 110.175781 -84.992188 112.8125 -78.609375 C 115.445312 -72.222656 116.765625 -65.210938 116.765625 -57.578125 C 116.765625 -55.867188 116.40625 -54.210938 115.6875 -52.609375 C 114.976562 -51.003906 114 -49.664062 112.75 -48.59375 C 111.507812 -47.519531 110.066406 -46.984375 108.421875 -46.984375 L 26.015625 -46.984375 C 26.578125 -42.273438 27.984375 -37.867188 30.234375 -33.765625 C 32.484375 -29.660156 35.390625 -26.070312 38.953125 -23 C 42.523438 -19.9375 46.628906 -17.546875 51.265625 -15.828125 C 55.898438 -14.117188 60.859375 -13.265625 66.140625 -13.265625 C 71.066406 -13.265625 76.113281 -14.191406 81.28125 -16.046875 C 86.457031 -17.910156 91.007812 -20.585938 94.9375 -24.078125 C 95.582031 -24.648438 96.28125 -24.882812 97.03125 -24.78125 C 97.78125 -24.675781 98.398438 -24.335938 98.890625 -23.765625 L 104.78125 -15.953125 C 105.28125 -15.378906 105.492188 -14.695312 105.421875 -13.90625 C 105.347656 -13.125 105.03125 -12.445312 104.46875 -11.875 C 101.1875 -8.882812 97.367188 -6.335938 93.015625 -4.234375 C 88.660156 -2.128906 84.128906 -0.503906 79.421875 0.640625 C 74.710938 1.785156 70.109375 2.359375 65.609375 2.359375 C 57.617188 2.359375 50.195312 0.914062 43.34375 -1.96875 C 36.5 -4.863281 30.503906 -8.878906 25.359375 -14.015625 C 20.222656 -19.160156 16.207031 -25.140625 13.3125 -31.953125 C 10.425781 -38.765625 8.984375 -46.0625 8.984375 -53.84375 C 8.984375 -61.757812 10.375 -69.125 13.15625 -75.9375 C 15.945312 -82.75 19.835938 -88.722656 24.828125 -93.859375 C 29.828125 -99.003906 35.644531 -103.019531 42.28125 -105.90625 C 48.914062 -108.800781 56.085938 -110.25 63.796875 -110.25 Z M 63.359375 -94.828125 C 57.078125 -94.828125 51.296875 -93.398438 46.015625 -90.546875 C 40.742188 -87.691406 36.359375 -83.785156 32.859375 -78.828125 C 29.359375 -73.867188 27.109375 -68.25 26.109375 -61.96875 L 100.828125 -61.96875 C 100.109375 -68.46875 98.070312 -74.175781 94.71875 -79.09375 C 91.363281 -84.019531 86.992188 -87.875 81.609375 -90.65625 C 76.222656 -93.4375 70.140625 -94.828125 63.359375 -94.828125 Z M 63.359375 -94.828125 "/></g></g><g transform="translate(781.464337, 447.854353)"><g><path d="M 47.625 -94.078125 C 42.5625 -94.078125 38.390625 -92.738281 35.109375 -90.0625 C 31.828125 -87.382812 30.1875 -83.941406 30.1875 -79.734375 C 30.1875 -77.378906 30.863281 -75.253906 32.21875 -73.359375 C 33.570312 -71.472656 35.890625 -69.707031 39.171875 -68.0625 C 42.453125 -66.425781 46.945312 -64.71875 52.65625 -62.9375 C 60.363281 -60.582031 66.820312 -57.890625 72.03125 -54.859375 C 77.238281 -51.828125 81.160156 -48.171875 83.796875 -43.890625 C 86.441406 -39.609375 87.765625 -34.429688 87.765625 -28.359375 C 87.765625 -22.015625 86.066406 -16.554688 82.671875 -11.984375 C 79.285156 -7.421875 74.664062 -3.90625 68.8125 -1.4375 C 62.96875 1.019531 56.265625 2.25 48.703125 2.25 C 43.921875 2.25 39.101562 1.5 34.25 0 C 29.394531 -1.5 24.898438 -3.601562 20.765625 -6.3125 C 16.628906 -9.019531 13.164062 -12.195312 10.375 -15.84375 C 8.945312 -17.414062 9.019531 -18.984375 10.59375 -20.546875 L 17.234375 -27.40625 C 17.878906 -28.039062 18.679688 -28.320312 19.640625 -28.25 C 20.597656 -28.1875 21.4375 -27.722656 22.15625 -26.859375 C 24.007812 -24.429688 26.414062 -22.21875 29.375 -20.21875 C 32.34375 -18.226562 35.519531 -16.660156 38.90625 -15.515625 C 42.289062 -14.378906 45.554688 -13.8125 48.703125 -13.8125 C 52.984375 -13.8125 56.816406 -14.429688 60.203125 -15.671875 C 63.597656 -16.921875 66.273438 -18.6875 68.234375 -20.96875 C 70.191406 -23.257812 71.171875 -25.9375 71.171875 -29 C 71.171875 -33.351562 69.257812 -36.992188 65.4375 -39.921875 C 61.625 -42.847656 55.867188 -45.523438 48.171875 -47.953125 C 40.742188 -50.160156 34.476562 -52.65625 29.375 -55.4375 C 24.28125 -58.226562 20.410156 -61.640625 17.765625 -65.671875 C 15.128906 -69.703125 13.8125 -74.75 13.8125 -80.8125 C 13.8125 -86.019531 15.179688 -90.851562 17.921875 -95.3125 C 20.671875 -99.769531 24.578125 -103.375 29.640625 -106.125 C 34.710938 -108.875 40.707031 -110.25 47.625 -110.25 C 54.257812 -110.25 60.503906 -108.890625 66.359375 -106.171875 C 72.210938 -103.460938 77.171875 -99.679688 81.234375 -94.828125 C 82.734375 -93.117188 82.628906 -91.476562 80.921875 -89.90625 L 74.8125 -84.234375 C 74.175781 -83.660156 73.335938 -83.410156 72.296875 -83.484375 C 71.265625 -83.554688 70.425781 -83.945312 69.78125 -84.65625 C 67.144531 -87.65625 63.953125 -89.972656 60.203125 -91.609375 C 56.460938 -93.253906 52.269531 -94.078125 47.625 -94.078125 Z M 47.625 -94.078125 "/></g></g></g><g fill="#000000" fill-opacity="1"><g transform="translate(10.359401, 754.604325)"><g><path d="M 137.96875 -17.125 C 139.394531 -17.125 140.515625 -16.765625 141.328125 -16.046875 C 142.148438 -15.335938 142.5625 -14.378906 142.5625 -13.171875 L 142.5625 -3.3125 C 142.5625 -2.3125 142.222656 -1.507812 141.546875 -0.90625 C 140.867188 -0.300781 139.960938 0 138.828125 0 L 26.4375 0 C 24.15625 0 23.015625 -1.140625 23.015625 -3.421875 L 23.015625 -159.265625 C 23.015625 -161.472656 24.15625 -162.578125 26.4375 -162.578125 L 136.46875 -162.578125 C 138.96875 -162.578125 140.21875 -161.507812 140.21875 -159.375 L 140.21875 -148.984375 C 140.21875 -146.703125 138.96875 -145.5625 136.46875 -145.5625 L 40.890625 -145.5625 L 40.890625 -78.34375 L 118.8125 -78.34375 C 121.664062 -78.34375 123.09375 -77.164062 123.09375 -74.8125 L 123.09375 -65.078125 C 123.09375 -62.867188 121.664062 -61.765625 118.8125 -61.765625 L 40.890625 -61.765625 L 40.890625 -17.125 Z M 137.96875 -17.125 "/></g></g><g transform="translate(163.950976, 754.604325)"><g><path d="M 30.1875 -162.90625 C 31.96875 -162.90625 32.859375 -162.082031 32.859375 -160.4375 L 32.859375 -2.25 C 32.859375 -0.601562 31.96875 0.21875 30.1875 0.21875 L 19.046875 0.21875 C 17.410156 0.21875 16.59375 -0.601562 16.59375 -2.25 L 16.59375 -160.4375 C 16.59375 -162.082031 17.410156 -162.90625 19.046875 -162.90625 Z M 30.1875 -162.90625 "/></g></g><g transform="translate(213.29294, 754.604325)"><g><path d="M 8.984375 -53.9375 C 8.984375 -61.863281 10.445312 -69.234375 13.375 -76.046875 C 16.300781 -82.859375 20.347656 -88.816406 25.515625 -93.921875 C 30.691406 -99.023438 36.722656 -103.019531 43.609375 -105.90625 C 50.492188 -108.800781 57.9375 -110.25 65.9375 -110.25 C 73.851562 -110.25 81.234375 -108.800781 88.078125 -105.90625 C 94.929688 -103.019531 100.925781 -99.023438 106.0625 -93.921875 C 111.207031 -88.816406 115.222656 -82.859375 118.109375 -76.046875 C 121.003906 -69.234375 122.453125 -61.863281 122.453125 -53.9375 C 122.453125 -46.09375 121.003906 -38.765625 118.109375 -31.953125 C 115.222656 -25.140625 111.207031 -19.179688 106.0625 -14.078125 C 100.925781 -8.972656 94.929688 -4.972656 88.078125 -2.078125 C 81.234375 0.804688 73.851562 2.25 65.9375 2.25 C 57.9375 2.25 50.492188 0.804688 43.609375 -2.078125 C 36.722656 -4.972656 30.691406 -8.972656 25.515625 -14.078125 C 20.347656 -19.179688 16.300781 -25.140625 13.375 -31.953125 C 10.445312 -38.765625 8.984375 -46.09375 8.984375 -53.9375 Z M 25.46875 -53.9375 C 25.46875 -48.226562 26.484375 -42.910156 28.515625 -37.984375 C 30.554688 -33.066406 33.410156 -28.769531 37.078125 -25.09375 C 40.753906 -21.425781 45.035156 -18.554688 49.921875 -16.484375 C 54.816406 -14.410156 60.117188 -13.375 65.828125 -13.375 C 71.535156 -13.375 76.8125 -14.410156 81.65625 -16.484375 C 86.507812 -18.554688 90.753906 -21.425781 94.390625 -25.09375 C 98.035156 -28.769531 100.875 -33.066406 102.90625 -37.984375 C 104.945312 -42.910156 105.96875 -48.226562 105.96875 -53.9375 C 105.96875 -59.71875 104.945312 -65.070312 102.90625 -70 C 100.875 -74.925781 98.035156 -79.222656 94.390625 -82.890625 C 90.753906 -86.566406 86.507812 -89.4375 81.65625 -91.5 C 76.8125 -93.570312 71.535156 -94.609375 65.828125 -94.609375 C 60.117188 -94.609375 54.816406 -93.570312 49.921875 -91.5 C 45.035156 -89.4375 40.753906 -86.566406 37.078125 -82.890625 C 33.410156 -79.222656 30.554688 -74.925781 28.515625 -70 C 26.484375 -65.070312 25.46875 -59.71875 25.46875 -53.9375 Z M 25.46875 -53.9375 "/></g></g></g><g fill="#000000" fill-opacity="1"><g transform="translate(344.728796, 754.604325)"><g><path d="M 89.375 -101.578125 C 89.945312 -101.078125 90.320312 -100.488281 90.5 -99.8125 C 90.675781 -99.132812 90.550781 -98.4375 90.125 -97.71875 L 85.203125 -89.90625 C 84.128906 -88.269531 82.738281 -88.09375 81.03125 -89.375 C 78.382812 -91.4375 75.488281 -93.039062 72.34375 -94.1875 C 69.207031 -95.332031 66.210938 -95.90625 63.359375 -95.90625 C 59.003906 -95.90625 54.972656 -95.066406 51.265625 -93.390625 C 47.554688 -91.710938 44.328125 -89.410156 41.578125 -86.484375 C 38.835938 -83.554688 36.695312 -80.179688 35.15625 -76.359375 C 33.625 -72.546875 32.859375 -68.460938 32.859375 -64.109375 L 32.859375 -2.359375 C 32.859375 -0.640625 31.96875 0.21875 30.1875 0.21875 L 19.15625 0.21875 C 17.445312 0.21875 16.59375 -0.640625 16.59375 -2.359375 L 16.59375 -105.421875 C 16.59375 -107.210938 17.445312 -108.109375 19.15625 -108.109375 L 25.6875 -108.109375 C 27.113281 -108.109375 28.003906 -107.425781 28.359375 -106.0625 L 31.046875 -88.515625 C 33.179688 -92.796875 35.992188 -96.554688 39.484375 -99.796875 C 42.984375 -103.046875 46.945312 -105.597656 51.375 -107.453125 C 55.800781 -109.316406 60.441406 -110.25 65.296875 -110.25 C 69.140625 -110.25 73.21875 -109.476562 77.53125 -107.9375 C 81.851562 -106.40625 85.800781 -104.285156 89.375 -101.578125 Z M 89.375 -101.578125 "/></g></g><g transform="translate(440.736909, 754.604325)"><g><path d="M 89.375 -101.578125 C 89.945312 -101.078125 90.320312 -100.488281 90.5 -99.8125 C 90.675781 -99.132812 90.550781 -98.4375 90.125 -97.71875 L 85.203125 -89.90625 C 84.128906 -88.269531 82.738281 -88.09375 81.03125 -89.375 C 78.382812 -91.4375 75.488281 -93.039062 72.34375 -94.1875 C 69.207031 -95.332031 66.210938 -95.90625 63.359375 -95.90625 C 59.003906 -95.90625 54.972656 -95.066406 51.265625 -93.390625 C 47.554688 -91.710938 44.328125 -89.410156 41.578125 -86.484375 C 38.835938 -83.554688 36.695312 -80.179688 35.15625 -76.359375 C 33.625 -72.546875 32.859375 -68.460938 32.859375 -64.109375 L 32.859375 -2.359375 C 32.859375 -0.640625 31.96875 0.21875 30.1875 0.21875 L 19.15625 0.21875 C 17.445312 0.21875 16.59375 -0.640625 16.59375 -2.359375 L 16.59375 -105.421875 C 16.59375 -107.210938 17.445312 -108.109375 19.15625 -108.109375 L 25.6875 -108.109375 C 27.113281 -108.109375 28.003906 -107.425781 28.359375 -106.0625 L 31.046875 -88.515625 C 33.179688 -92.796875 35.992188 -96.554688 39.484375 -99.796875 C 42.984375 -103.046875 46.945312 -105.597656 51.375 -107.453125 C 55.800781 -109.316406 60.441406 -110.25 65.296875 -110.25 C 69.140625 -110.25 73.21875 -109.476562 77.53125 -107.9375 C 81.851562 -106.40625 85.800781 -104.285156 89.375 -101.578125 Z M 89.375 -101.578125 "/></g></g></g><g fill="#000000" fill-opacity="1"><g transform="translate(530.644208, 754.604325)"><g><path d="M 63.796875 -110.25 C 71.429688 -110.25 78.472656 -108.945312 84.921875 -106.34375 C 91.378906 -103.738281 96.984375 -100.0625 101.734375 -95.3125 C 106.484375 -90.5625 110.175781 -84.992188 112.8125 -78.609375 C 115.445312 -72.222656 116.765625 -65.210938 116.765625 -57.578125 C 116.765625 -55.867188 116.40625 -54.210938 115.6875 -52.609375 C 114.976562 -51.003906 114 -49.664062 112.75 -48.59375 C 111.507812 -47.519531 110.066406 -46.984375 108.421875 -46.984375 L 26.015625 -46.984375 C 26.578125 -42.273438 27.984375 -37.867188 30.234375 -33.765625 C 32.484375 -29.660156 35.390625 -26.070312 38.953125 -23 C 42.523438 -19.9375 46.628906 -17.546875 51.265625 -15.828125 C 55.898438 -14.117188 60.859375 -13.265625 66.140625 -13.265625 C 71.066406 -13.265625 76.113281 -14.191406 81.28125 -16.046875 C 86.457031 -17.910156 91.007812 -20.585938 94.9375 -24.078125 C 95.582031 -24.648438 96.28125 -24.882812 97.03125 -24.78125 C 97.78125 -24.675781 98.398438 -24.335938 98.890625 -23.765625 L 104.78125 -15.953125 C 105.28125 -15.378906 105.492188 -14.695312 105.421875 -13.90625 C 105.347656 -13.125 105.03125 -12.445312 104.46875 -11.875 C 101.1875 -8.882812 97.367188 -6.335938 93.015625 -4.234375 C 88.660156 -2.128906 84.128906 -0.503906 79.421875 0.640625 C 74.710938 1.785156 70.109375 2.359375 65.609375 2.359375 C 57.617188 2.359375 50.195312 0.914062 43.34375 -1.96875 C 36.5 -4.863281 30.503906 -8.878906 25.359375 -14.015625 C 20.222656 -19.160156 16.207031 -25.140625 13.3125 -31.953125 C 10.425781 -38.765625 8.984375 -46.0625 8.984375 -53.84375 C 8.984375 -61.757812 10.375 -69.125 13.15625 -75.9375 C 15.945312 -82.75 19.835938 -88.722656 24.828125 -93.859375 C 29.828125 -99.003906 35.644531 -103.019531 42.28125 -105.90625 C 48.914062 -108.800781 56.085938 -110.25 63.796875 -110.25 Z M 63.359375 -94.828125 C 57.078125 -94.828125 51.296875 -93.398438 46.015625 -90.546875 C 40.742188 -87.691406 36.359375 -83.785156 32.859375 -78.828125 C 29.359375 -73.867188 27.109375 -68.25 26.109375 -61.96875 L 100.828125 -61.96875 C 100.109375 -68.46875 98.070312 -74.175781 94.71875 -79.09375 C 91.363281 -84.019531 86.992188 -87.875 81.609375 -90.65625 C 76.222656 -93.4375 70.140625 -94.828125 63.359375 -94.828125 Z M 63.359375 -94.828125 "/></g></g><g transform="translate(656.407346, 754.604325)"><g><path d="M 118.484375 -108.109375 C 120.265625 -108.109375 121.15625 -107.210938 121.15625 -105.421875 L 121.15625 -2.46875 C 121.15625 -0.675781 120.265625 0.21875 118.484375 0.21875 L 112.0625 0.21875 C 110.707031 0.21875 109.78125 -0.457031 109.28125 -1.8125 L 106.171875 -22.796875 C 101.679688 -15.160156 95.617188 -9.09375 87.984375 -4.59375 C 80.347656 -0.101562 71.820312 2.140625 62.40625 2.140625 C 54.90625 2.140625 47.910156 0.710938 41.421875 -2.140625 C 34.929688 -4.992188 29.257812 -8.953125 24.40625 -14.015625 C 19.550781 -19.085938 15.765625 -25.03125 13.046875 -31.84375 C 10.335938 -38.65625 8.984375 -46.019531 8.984375 -53.9375 C 8.984375 -62.007812 10.335938 -69.488281 13.046875 -76.375 C 15.765625 -83.257812 19.53125 -89.25 24.34375 -94.34375 C 29.164062 -99.445312 34.820312 -103.40625 41.3125 -106.21875 C 47.800781 -109.039062 54.796875 -110.453125 62.296875 -110.453125 C 71.785156 -110.453125 80.347656 -108.222656 87.984375 -103.765625 C 95.617188 -99.304688 101.679688 -93.15625 106.171875 -85.3125 L 109.28125 -106.0625 C 109.707031 -107.425781 110.632812 -108.109375 112.0625 -108.109375 Z M 65.1875 -13.8125 C 70.820312 -13.8125 76.082031 -14.84375 80.96875 -16.90625 C 85.851562 -18.976562 90.148438 -21.851562 93.859375 -25.53125 C 97.578125 -29.207031 100.46875 -33.46875 102.53125 -38.3125 C 104.601562 -43.164062 105.640625 -48.410156 105.640625 -54.046875 C 105.640625 -59.753906 104.585938 -65.050781 102.484375 -69.9375 C 100.378906 -74.832031 97.46875 -79.113281 93.75 -82.78125 C 90.039062 -86.457031 85.742188 -89.3125 80.859375 -91.34375 C 75.972656 -93.382812 70.710938 -94.40625 65.078125 -94.40625 C 59.578125 -94.40625 54.4375 -93.382812 49.65625 -91.34375 C 44.875 -89.3125 40.664062 -86.457031 37.03125 -82.78125 C 33.394531 -79.113281 30.539062 -74.832031 28.46875 -69.9375 C 26.394531 -65.050781 25.359375 -59.753906 25.359375 -54.046875 C 25.359375 -48.410156 26.394531 -43.164062 28.46875 -38.3125 C 30.539062 -33.46875 33.394531 -29.207031 37.03125 -25.53125 C 40.664062 -21.851562 44.890625 -18.976562 49.703125 -16.90625 C 54.523438 -14.84375 59.6875 -13.8125 65.1875 -13.8125 Z M 65.1875 -13.8125 "/></g></g><g transform="translate(794.158119, 754.604325)"><g><path d="M 118.484375 -108.109375 C 120.265625 -108.109375 121.15625 -107.210938 121.15625 -105.421875 L 121.15625 -6.75 C 121.15625 0.675781 119.890625 7.457031 117.359375 13.59375 C 114.828125 19.726562 111.257812 25.003906 106.65625 29.421875 C 102.050781 33.847656 96.59375 37.273438 90.28125 39.703125 C 83.96875 42.128906 76.992188 43.378906 69.359375 43.453125 C 64.785156 43.453125 60.195312 43.09375 55.59375 42.375 C 51 41.664062 46.628906 40.648438 42.484375 39.328125 C 38.347656 38.015625 34.640625 36.5 31.359375 34.78125 C 29.859375 34.070312 29.570312 32.789062 30.5 30.9375 L 33.828125 23.328125 C 34.179688 22.617188 34.695312 22.226562 35.375 22.15625 C 36.050781 22.082031 36.75 22.191406 37.46875 22.484375 C 40.101562 23.546875 43.1875 24.578125 46.71875 25.578125 C 50.25 26.578125 53.921875 27.414062 57.734375 28.09375 C 61.554688 28.769531 65.144531 29.109375 68.5 29.109375 C 75.851562 29.109375 82.273438 27.59375 87.765625 24.5625 C 93.265625 21.53125 97.546875 17.320312 100.609375 11.9375 C 103.679688 6.550781 105.25 0.289062 105.3125 -6.84375 L 105.53125 -22.796875 C 100.96875 -15.585938 94.9375 -9.859375 87.4375 -5.609375 C 79.945312 -1.367188 71.601562 0.75 62.40625 0.75 C 54.90625 0.75 47.910156 -0.65625 41.421875 -3.46875 C 34.929688 -6.289062 29.257812 -10.21875 24.40625 -15.25 C 19.550781 -20.28125 15.765625 -26.09375 13.046875 -32.6875 C 10.335938 -39.289062 8.984375 -46.375 8.984375 -53.9375 C 8.984375 -62.007812 10.335938 -69.488281 13.046875 -76.375 C 15.765625 -83.257812 19.53125 -89.25 24.34375 -94.34375 C 29.164062 -99.445312 34.820312 -103.40625 41.3125 -106.21875 C 47.800781 -109.039062 54.796875 -110.453125 62.296875 -110.453125 C 71.785156 -110.453125 80.347656 -108.222656 87.984375 -103.765625 C 95.617188 -99.304688 101.679688 -93.15625 106.171875 -85.3125 L 109.28125 -106.0625 C 109.707031 -107.425781 110.632812 -108.109375 112.0625 -108.109375 Z M 65.1875 -15.09375 C 70.96875 -15.09375 76.300781 -16.085938 81.1875 -18.078125 C 86.070312 -20.078125 90.351562 -22.878906 94.03125 -26.484375 C 97.707031 -30.085938 100.5625 -34.28125 102.59375 -39.0625 C 104.625 -43.84375 105.640625 -49.019531 105.640625 -54.59375 C 105.640625 -60.226562 104.625 -65.46875 102.59375 -70.3125 C 100.5625 -75.164062 97.707031 -79.410156 94.03125 -83.046875 C 90.351562 -86.691406 86.050781 -89.53125 81.125 -91.5625 C 76.207031 -93.59375 70.859375 -94.609375 65.078125 -94.609375 C 59.441406 -94.609375 54.210938 -93.59375 49.390625 -91.5625 C 44.578125 -89.53125 40.367188 -86.691406 36.765625 -83.046875 C 33.160156 -79.410156 30.359375 -75.164062 28.359375 -70.3125 C 26.359375 -65.46875 25.359375 -60.226562 25.359375 -54.59375 C 25.359375 -49.019531 26.375 -43.84375 28.40625 -39.0625 C 30.445312 -34.28125 33.269531 -30.085938 36.875 -26.484375 C 40.476562 -22.878906 44.6875 -20.078125 49.5 -18.078125 C 54.320312 -16.085938 59.550781 -15.09375 65.1875 -15.09375 Z M 65.1875 -15.09375 "/></g></g></g><g fill="#000000" fill-opacity="1"><g transform="translate(931.908819, 754.604325)"><g><path d="M 118.484375 -108.109375 C 120.265625 -108.109375 121.15625 -107.210938 121.15625 -105.421875 L 121.15625 -2.46875 C 121.15625 -0.675781 120.265625 0.21875 118.484375 0.21875 L 112.0625 0.21875 C 110.707031 0.21875 109.78125 -0.457031 109.28125 -1.8125 L 106.171875 -22.796875 C 101.679688 -15.160156 95.617188 -9.09375 87.984375 -4.59375 C 80.347656 -0.101562 71.820312 2.140625 62.40625 2.140625 C 54.90625 2.140625 47.910156 0.710938 41.421875 -2.140625 C 34.929688 -4.992188 29.257812 -8.953125 24.40625 -14.015625 C 19.550781 -19.085938 15.765625 -25.03125 13.046875 -31.84375 C 10.335938 -38.65625 8.984375 -46.019531 8.984375 -53.9375 C 8.984375 -62.007812 10.335938 -69.488281 13.046875 -76.375 C 15.765625 -83.257812 19.53125 -89.25 24.34375 -94.34375 C 29.164062 -99.445312 34.820312 -103.40625 41.3125 -106.21875 C 47.800781 -109.039062 54.796875 -110.453125 62.296875 -110.453125 C 71.785156 -110.453125 80.347656 -108.222656 87.984375 -103.765625 C 95.617188 -99.304688 101.679688 -93.15625 106.171875 -85.3125 L 109.28125 -106.0625 C 109.707031 -107.425781 110.632812 -108.109375 112.0625 -108.109375 Z M 65.1875 -13.8125 C 70.820312 -13.8125 76.082031 -14.84375 80.96875 -16.90625 C 85.851562 -18.976562 90.148438 -21.851562 93.859375 -25.53125 C 97.578125 -29.207031 100.46875 -33.46875 102.53125 -38.3125 C 104.601562 -43.164062 105.640625 -48.410156 105.640625 -54.046875 C 105.640625 -59.753906 104.585938 -65.050781 102.484375 -69.9375 C 100.378906 -74.832031 97.46875 -79.113281 93.75 -82.78125 C 90.039062 -86.457031 85.742188 -89.3125 80.859375 -91.34375 C 75.972656 -93.382812 70.710938 -94.40625 65.078125 -94.40625 C 59.578125 -94.40625 54.4375 -93.382812 49.65625 -91.34375 C 44.875 -89.3125 40.664062 -86.457031 37.03125 -82.78125 C 33.394531 -79.113281 30.539062 -74.832031 28.46875 -69.9375 C 26.394531 -65.050781 25.359375 -59.753906 25.359375 -54.046875 C 25.359375 -48.410156 26.394531 -43.164062 28.46875 -38.3125 C 30.539062 -33.46875 33.394531 -29.207031 37.03125 -25.53125 C 40.664062 -21.851562 44.890625 -18.976562 49.703125 -16.90625 C 54.523438 -14.84375 59.6875 -13.8125 65.1875 -13.8125 Z M 65.1875 -13.8125 "/></g></g></g></svg>